<?xml version="1.0" encoding="utf-8"?>
<!-- Generator: Adobe Illustrator 19.1.0, SVG Export Plug-In . SVG Version: 6.00 Build 0)  -->
<svg version="1.1" id="Layer_1" xmlns="http://www.w3.org/2000/svg" xmlns:xlink="http://www.w3.org/1999/xlink" x="0px" y="0px"
	 viewBox="31.5 98.5 39 53.1" style="enable-background:new 31.5 98.5 39 53.1;" xml:space="preserve">
<style type="text/css">
	.st0{fill:#F7941E;}
	.st1{fill:#F57E20;}
	.st2{fill:#FBB040;}
</style>
<g>
	<path class="st0" d="M70.5,134.2v0.1c-1.2,9.6-9.3,17-19.1,17.2c5.6-3.6,9.3-9.9,9.3-17.1c0-1.5-0.4-3-1-4.2
		c-0.2-0.3-0.4-0.7-0.6-1l0,0c-1.2-1.8-2-4-2-6.4c0-0.1,0-0.2,0-0.2c0-0.2,0-0.4,0-0.7v-0.1c0-0.2,0-0.3,0-0.5c0-0.1,0-0.2,0-0.2
		c0-0.2,0.1-0.4,0.1-0.6v-0.1c0-0.2,0.1-0.4,0.1-0.6l0,0c0-0.2,0.1-0.4,0.2-0.6c0.1-0.2,0.1-0.4,0.2-0.6c0.1-0.2,0.2-0.4,0.2-0.6
		c0.1-0.3,0.2-0.5,0.4-0.8c0.1-0.1,0.1-0.2,0.2-0.3c0.1-0.1,0.1-0.2,0.2-0.4l0,0c0.8-1.3,1.8-2.4,3-3.4c0.1-0.1,0.1-0.1,0.2-0.2
		c1.4-1,3.1-1.7,4.9-2l0,0c-3.1,1.9-5.2,5.3-5.2,9.2c0,5.1,3.5,9.4,8.3,10.5c0.2,0.8,0.4,1.6,0.4,2.5
		C70.4,133.5,70.4,133.8,70.5,134.2z"/>
	<path class="st1" d="M60.6,134.5c0,7.2-3.7,13.4-9.3,17.1c-0.1,0-0.2,0-0.3,0c-9.7,0-17.7-7-19.3-16.2c-0.1-0.4-0.1-0.7-0.2-1.1
		c0-0.2,0-0.5,0.1-0.7c6.4-1.7,11.1-7.5,11.1-14.4c0-0.2,0-0.5,0-0.7s0-0.4,0-0.6c0-0.1,0-0.2,0-0.4c0-0.3-0.1-0.6-0.1-0.9
		c0-0.1,0-0.3-0.1-0.4c-0.1-0.3-0.1-0.5-0.2-0.8c0-0.2-0.1-0.4-0.2-0.6c-0.1-0.2-0.1-0.4-0.2-0.6c-0.2-0.7-0.5-1.3-0.8-1.9
		c-0.1-0.2-0.2-0.4-0.3-0.6c-0.2-0.3-0.3-0.5-0.5-0.8c-0.1-0.2-0.2-0.3-0.3-0.5c-0.3-0.4-0.6-0.8-0.9-1.1c-0.1-0.2-0.3-0.3-0.5-0.5
		s-0.4-0.4-0.6-0.6l0,0c-0.2-0.2-0.4-0.4-0.6-0.5c-0.2-0.2-0.4-0.4-0.7-0.5c2.5,0.8,4.7,2.4,6.4,4.3l0,0c0.8,1,1.6,2.1,2.1,3.3
		c0.8,1.8,1.3,3.9,1.3,6c0,2.9-0.8,5.5-2.3,7.8c-0.3,0.4-0.6,0.8-0.8,1.2c-0.8,1.4-1.3,3-1.3,4.7c0,5.1,4.1,9.3,9.3,9.3
		C56.4,143.7,60.6,139.6,60.6,134.5z"/>
	<path class="st2" d="M59.6,130.2c-2-1.2-3.8-2.7-5.3-4.6c-2.1-2.6-3.6-5.6-4.2-9c-0.2-1.2-0.4-2.5-0.4-3.7c0-5.7,2.3-10.8,6.1-14.4
		c0.1,0,0.1,0,0.2,0c-1.2,2.2-1.9,4.7-1.9,7.3c0,2.6,0.7,5,1.8,7.2c0.7,1.3,1.7,2.5,2.7,3.6l0,0c-0.1,0.1-0.1,0.2-0.2,0.4
		c-0.1,0.1-0.1,0.2-0.2,0.3c-0.1,0.2-0.2,0.5-0.4,0.8c-0.1,0.2-0.2,0.4-0.2,0.6c-0.1,0.2-0.1,0.4-0.2,0.6c-0.1,0.2-0.1,0.4-0.2,0.6
		l0,0c-0.1,0.2-0.1,0.4-0.1,0.6v0.1c0,0.2-0.1,0.4-0.1,0.6c0,0.1,0,0.2,0,0.2c0,0.2,0,0.3,0,0.5v0.1c0,0.2,0,0.4,0,0.7
		c0,0.1,0,0.2,0,0.2c0,2.4,0.8,4.6,2,6.4l0,0C59.2,129.6,59.4,129.9,59.6,130.2z"/>
	<path class="st0" d="M60.6,134.5c0,5.1-4.1,9.3-9.3,9.3c-5.1,0-9.3-4.2-9.3-9.3c0-1.7,0.5-3.4,1.3-4.7c0.3-0.4,0.5-0.8,0.8-1.2
		c1.4-2.3,2.3-4.9,2.3-7.8c0-2.1-0.5-4.2-1.3-6c-0.5-1.2-1.3-2.3-2.1-3.3c0.5-6.9,5.9-12.3,12.8-12.9c-3.8,3.7-6.1,8.8-6.1,14.4
		c0,1.3,0.1,2.5,0.4,3.7c0.6,3.4,2.1,6.5,4.2,9c1.5,1.8,3.3,3.3,5.3,4.6C60.2,131.5,60.6,132.9,60.6,134.5z"/>
	<path class="st2" d="M66.2,123.1c-0.5-0.8-0.9-1.7-1.2-2.6c-0.2-0.8-0.4-1.7-0.4-2.6c0-0.1,0-0.3,0-0.4c0-2.4,0.8-4.7,2.1-6.5
		c-3.1,1.9-5.2,5.3-5.2,9.2c0,5.1,3.5,9.4,8.3,10.5C69.2,127.9,68,125.3,66.2,123.1z M66.1,123C66.1,123,66.2,123,66.1,123
		C66.2,123.1,66.1,123,66.1,123z"/>
	<path class="st0" d="M42.7,119.1c0,6.9-4.7,12.7-11.1,14.4c0.4-4.2,2.1-8,4.7-11l0.8-0.9c1.3-1.5,2.1-3.5,2.4-5.5
		c0.1-0.5,0.1-0.9,0.1-1.4c0-0.2,0-0.4,0-0.6c-0.1-2.8-1.3-5.3-3.2-7.1c0.1,0,0.1,0,0.2,0.1c0.2,0.2,0.5,0.3,0.7,0.5
		s0.4,0.4,0.6,0.5l0,0c0.2,0.2,0.4,0.4,0.6,0.6c0.2,0.2,0.3,0.3,0.5,0.5c0.3,0.4,0.6,0.7,0.9,1.1c0.1,0.2,0.2,0.3,0.3,0.5
		c0.2,0.3,0.3,0.5,0.5,0.8c0.1,0.2,0.2,0.4,0.3,0.6c0.3,0.6,0.6,1.3,0.8,1.9c0.1,0.2,0.1,0.4,0.2,0.6c0.1,0.2,0.1,0.4,0.2,0.6
		c0.1,0.3,0.1,0.5,0.2,0.8c0,0.1,0.1,0.3,0.1,0.4c0.1,0.3,0.1,0.6,0.1,0.9c0,0.1,0,0.2,0,0.4s0,0.4,0,0.6
		C42.7,118.6,42.7,118.8,42.7,119.1z"/>
</g>
</svg>
